# File created by Blade
# Date/Time:  Tue Sep 30 19:11:22 2014
#---------------------------------------------------------
:version 1.10
:name HOM
:units
  mass 1.0
  length 1.000000
  angle deg
:documentation
     Acclaim Skeleton File
:root
   axis xyz
   order TX TY TZ RX RY RZ
   position 0.000000 0.000000 0.000000
   orientation 0 0 0
:bonedata
   begin
      id 1
      name Spine_dum
      direction 0.000000 1.000000 0.000000
      length 7.508948
      axis 0.0 0.0 0.0 xyz
   end
   begin
      id 2
      name LeftUpLeg_dum
      direction 1.000000 0.000000 0.000000
      length 3.000560
      axis 0.0 0.0 0.0 xyz
   end
   begin
      id 3
      name RightUpLeg_dum
      direction -1.000000 0.000000 0.000000
      length 3.000560
      axis 0.0 0.0 0.0 xyz
   end
   begin
      id 4
      name Spine
      direction 0.000000 1.000000 0.000000
      length 0.000000
      axis 0.0 0.0 0.0 xyz
      dof rx ry rz
   end
   begin
      id 5
      name Spine_dum1
      direction 0.000000 1.000000 0.000000
      length 13.861154
      axis 0.0 0.0 0.0 xyz
   end
   begin
      id 6
      name Spine_dum2
      direction 0.000000 1.000000 0.000000
      length 8.204781
      axis 0.0 0.0 0.0 xyz
   end
   begin
      id 7
      name Spine_dum3
      direction 0.000000 1.000000 0.000000
      length 8.204781
      axis 0.0 0.0 0.0 xyz
   end
   begin
      id 8
      name Head
      direction 0.000000 1.000000 0.000000
      length 4.527550
      axis 0.0 0.0 0.0 xyz
      dof rx ry rz
   end
   begin
      id 9
      name LeftShoulder
      direction 1.000000 0.000000 0.000000
      length 6.635956
      axis 0.0 0.0 -90.0 xyz
      dof rx ry rz
   end
   begin
      id 10
      name LeftArm
      direction 1.000000 0.000000 0.000000
      length 10.274218
      axis 0.0 0.0 -90.0 xyz
      dof rx ry rz
   end
   begin
      id 11
      name LeftForeArm
      direction 1.000000 0.000000 0.000000
      length 8.522147
      axis 0.0 0.0 -90.0 xyz
      dof ry rz rx
   end
   begin
      id 12
      name LeftHand
      direction 0.000000 0.000000 0.000000
      length 0.000000
      axis 0.0 0.0 -90.0 xyz
      dof rx ry rz
   end
   begin
      id 13
      name LeftHand_dum1
      direction 0.000000 0.000000 0.000000
      length 0.000000
      axis 0.0 0.0 -90.0 xyz
   end
   begin
      id 14
      name LeftHand_dum2
      direction 1.000000 0.000000 0.000000
      length 3.937000
      axis 0.0 0.0 -90.0 xyz
   end
   begin
      id 15
      name LeftHandThumb1
      direction 0.000000 0.000000 1.000000
      length 3.937000
      axis 0.0 0.0 -90.0 xyz
      dof rx rz ry
   end
   begin
      id 16
      name RightShoulder
      direction -1.000000 0.000000 0.000000
      length 6.635956
      axis 0.0 0.0 90.0 xyz
      dof rx ry rz
   end
   begin
      id 17
      name RightArm
      direction -1.000000 0.000000 0.000000
      length 10.274218
      axis 0.0 0.0 90.0 xyz
      dof rx ry rz
   end
   begin
      id 18
      name RightForeArm
      direction -1.000000 0.000000 0.000000
      length 8.522147
      axis 0.0 0.0 90.0 xyz
      dof ry rz rx
   end
   begin
      id 19
      name RightHand
      direction 0.000000 0.000000 0.000000
      length 0.000000
      axis 0.0 0.0 90.0 xyz
      dof rx ry rz
   end
   begin
      id 20
      name RightHand_dum1
      direction 0.000000 0.000000 0.000000
      length 0.000000
      axis 0.0 0.0 90.0 xyz
   end
   begin
      id 21
      name RightHand_dum2
      direction -1.000000 0.000000 0.000000
      length 3.937000
      axis 0.0 0.0 90.0 xyz
   end
   begin
      id 22
      name RightHandThumb1
      direction 0.000000 0.000000 1.000000
      length 3.937000
      axis 0.0 0.0 90.0 xyz
      dof rx rz ry
   end
   begin
      id 23
      name LeftUpLeg
      direction 0.000000 -1.000000 0.000000
      length 16.490845
      axis 0.0 0.0 0.0 xyz
      dof rx ry rz
   end
   begin
      id 24
      name LeftLeg
      direction 0.000000 -1.000000 0.000000
      length 14.556576
      axis 0.0 0.0 0.0 xyz
      dof rx ry rz
   end
   begin
      id 25
      name LeftFoot
      direction 0.000000 -0.258819 0.965926
      length 4.831116
      axis 15.0 0.0 0.0 xyz
      dof rx ry rz
   end
   begin
      id 26
      name LeftToeBase
      direction 0.000000 0.000000 1.000000
      length 2.952750
      axis 0.0 0.0 0.0 xyz
      dof rx ry rz
   end
   begin
      id 27
      name RightUpLeg
      direction 0.000000 -1.000000 0.000000
      length 16.490845
      axis 0.0 0.0 0.0 xyz
      dof rx ry rz
   end
   begin
      id 28
      name RightLeg
      direction 0.000000 -1.000000 0.000000
      length 14.556576
      axis 0.0 0.0 0.0 xyz
      dof rx ry rz
   end
   begin
      id 29
      name RightFoot
      direction 0.000000 -0.258819 0.965926
      length 4.831116
      axis 15.0 0.0 0.0 xyz
      dof rx ry rz
   end
   begin
      id 30
      name RightToeBase
      direction 0.000000 0.000000 1.000000
      length 2.952750
      axis 0.0 0.0 0.0 xyz
      dof rx ry rz
   end
:hierarchy
   begin
      root Spine_dum LeftUpLeg_dum RightUpLeg_dum
      Spine_dum Spine
      LeftUpLeg_dum LeftUpLeg
      RightUpLeg_dum RightUpLeg
      Spine Spine_dum1 Spine_dum2 Spine_dum3
      Spine_dum1 Head
      Spine_dum2 LeftShoulder
      Spine_dum3 RightShoulder
      LeftShoulder LeftArm
      LeftArm LeftForeArm
      LeftForeArm LeftHand
      LeftHand LeftHand_dum1 LeftHand_dum2
      LeftHand_dum1 LeftHandThumb1
      RightShoulder RightArm
      RightArm RightForeArm
      RightForeArm RightHand
      RightHand RightHand_dum1 RightHand_dum2
      RightHand_dum1 RightHandThumb1
      LeftUpLeg LeftLeg
      LeftLeg LeftFoot
      LeftFoot LeftToeBase
      RightUpLeg RightLeg
      RightLeg RightFoot
      RightFoot RightToeBase
   end

# File created by Blade
# Date/Time:  Thu Sep 25 14:26:36 2014
# Frame Rate: 120.000 fps
#------------------------------------------------------
:FULLY-SPECIFIED
:DEGREES
1
root -2.596508 32.756270 -0.850198 10.240593 -1.070191 -1.214636
Spine -10.305243 5.275649 1.054873
Head -2.263947 -3.689659 6.917809
LeftShoulder -12.428412 17.576156 27.398058
LeftArm 22.881774 -18.364128 -32.401774
LeftForeArm 9.876753 0.000000 12.826984
LeftHand -29.295760 -0.000000 -3.322957
LeftHandThumb1 -26.253704 0.000000 33.147579
RightShoulder -18.289232 16.022348 -40.716600
RightArm -9.811402 5.339169 35.559184
RightForeArm -29.042839 -0.000000 16.666232
RightHand -11.987599 0.000000 7.133396
RightHandThumb1 -24.326973 -0.000000 -32.862282
LeftUpLeg -3.686113 3.155086 1.195425
LeftLeg -2.864796 -0.000000 0.000000
LeftFoot -9.727811 5.984855 -16.588770
LeftToeBase 3.845931 -0.000000 -0.000000
RightUpLeg -6.417238 -7.803501 2.065650
RightLeg 1.932300 -0.000000 -0.000000
RightFoot -9.550671 -2.585802 -5.931425
RightToeBase -0.766670 -0.000000 0.000000
2
root -2.595809 32.756112 -0.847372 10.234227 -1.071633 -1.210497
Spine -10.309353 5.266649 1.054203
Head -2.269251 -3.677865 6.937435
LeftShoulder -12.420165 17.556190 27.385393
LeftArm 22.846677 -18.324539 -32.343041
LeftForeArm 9.892593 -0.000000 12.806529
LeftHand -29.097790 -0.000000 -3.290508
LeftHandThumb1 -26.253704 0.000000 33.147579
RightShoulder -18.272439 16.034596 -40.704792
RightArm -9.820050 5.375133 35.539266
RightForeArm -29.121166 -0.000000 16.662078
RightHand -11.940287 0.000000 7.241927
RightHandThumb1 -24.326973 -0.000000 -32.862282
LeftUpLeg -3.673837 3.156459 1.190798
LeftLeg -2.868247 -0.000000 0.000000
LeftFoot -9.724240 5.983324 -16.574829
LeftToeBase 3.832638 -0.000000 -0.000000
RightUpLeg -6.404637 -7.809352 2.061109
RightLeg 1.928289 -0.000000 -0.000000
RightFoot -9.556508 -2.581541 -5.944099
RightToeBase -0.752847 -0.000000 0.000000
3
root -2.596675 32.756137 -0.845902 10.235078 -1.077998 -1.211115
Spine -10.318498 5.268643 1.053270
Head -2.288029 -3.672703 6.954142
LeftShoulder -12.422494 17.572539 27.398395
LeftArm 22.858499 -18.319211 -32.354340
LeftForeArm 9.865762 -0.000000 12.825627
LeftHand -29.231054 -0.000000 -3.328267
LeftHandThumb1 -26.253704 0.000000 33.147579
RightShoulder -18.264457 16.043582 -40.708383
RightArm -9.833026 5.346359 35.559370
RightForeArm -29.025970 -0.000000 16.655489
RightHand -11.972538 -0.000000 7.176753
RightHandThumb1 -24.326973 -0.000000 -32.862282
LeftUpLeg -3.673229 3.178580 1.190246
LeftLeg -2.864864 -0.000000 0.000000
LeftFoot -9.725720 5.967877 -16.578289
LeftToeBase 3.814124 -0.000000 -0.000000
RightUpLeg -6.399006 -7.806651 2.060015
RightLeg 1.918927 -0.000000 -0.000000
RightFoot -9.540591 -2.582133 -5.968703
RightToeBase -0.800335 -0.000000 0.000000
4
root -2.597133 32.756241 -0.843661 10.236749 -1.075453 -1.210317
Spine -10.332424 5.274987 1.052613
Head -2.303958 -3.685185 6.977346
LeftShoulder -12.410834 17.573139 27.396946
LeftArm 22.863234 -18.311836 -32.334984
LeftForeArm 9.839183 -0.000000 12.818863
LeftHand -29.219504 -0.000000 -3.330767
LeftHandThumb1 -26.253704 0.000000 33.147579
RightShoulder -18.267771 16.025243 -40.708725
RightArm -9.829665 5.369950 35.569191
RightForeArm -29.030472 -0.000000 16.654393
RightHand -11.993858 -0.000000 7.206428
RightHandThumb1 -24.326973 -0.000000 -32.862282
LeftUpLeg -3.669411 3.174820 1.191108
LeftLeg -2.870587 -0.000000 0.000000
LeftFoot -9.723089 5.957088 -16.588523
LeftToeBase 3.968179 -0.000000 -0.000000
RightUpLeg -6.392258 -7.805471 2.059433
RightLeg 1.912317 -0.000000 -0.000000
RightFoot -9.548903 -2.564951 -5.907053
RightToeBase -0.804212 -0.000000 0.000000
5
root -2.596544 32.756108 -0.842029 10.238857 -1.083698 -1.206593
Spine -10.344037 5.289047 1.051598
Head -2.325667 -3.683138 6.984127
LeftShoulder -12.389944 17.552014 27.409073
LeftArm 22.839630 -18.317107 -32.342189
LeftForeArm 9.840935 -0.000000 12.832357
LeftHand -29.221500 -0.000000 -3.357498
LeftHandThumb1 -26.253704 0.000000 33.147579
RightShoulder -18.266491 16.003455 -40.704512
RightArm -9.826492 5.394484 35.573175
RightForeArm -29.013691 -0.000000 16.650017
RightHand -11.976494 -0.000000 7.209953
RightHandThumb1 -24.326973 -0.000000 -32.862282
LeftUpLeg -3.665099 3.175832 1.185907
LeftLeg -2.873319 -0.000000 0.000000
LeftFoot -9.731917 5.972489 -16.587309
LeftToeBase 3.881042 -0.000000 -0.000000
RightUpLeg -6.393036 -7.786887 2.054028
RightLeg 1.914440 -0.000000 -0.000000
RightFoot -9.546468 -2.599148 -5.926588
RightToeBase -0.823859 -0.000000 0.000000
6
root -2.596601 32.756126 -0.840089 10.238968 -1.079199 -1.205346
Spine -10.354290 5.282160 1.054730
Head -2.343809 -3.688947 7.006433
LeftShoulder -12.383650 17.566186 27.412376
LeftArm 22.842469 -18.358546 -32.353452
LeftForeArm 9.783276 -0.000000 12.839384
LeftHand -29.238507 -0.000000 -3.413776
LeftHandThumb1 -26.253704 0.000000 33.147579
RightShoulder -18.251022 15.999176 -40.714951
RightArm -9.875579 5.438656 35.594183
RightForeArm -29.118816 -0.000000 16.690044
RightHand -11.925375 -0.000000 7.194191
RightHandThumb1 -24.326973 -0.000000 -32.862282
LeftUpLeg -3.662988 3.155420 1.185166
LeftLeg -2.871423 -0.000000 0.000000
LeftFoot -9.735754 5.997047 -16.579502
LeftToeBase 3.851365 -0.000000 -0.000000
RightUpLeg -6.384525 -7.801725 2.053467
RightLeg 1.906450 -0.000000 -0.000000
RightFoot -9.553794 -2.587065 -5.934591
RightToeBase -0.797322 -0.000000 0.000000
